<svg width="60" height="60" viewBox="0 0 60 60" fill="none" xmlns="http://www.w3.org/2000/svg">
<path d="M12 18.1818H27C27.553 18.1818 28 17.7135 28 17.1364C28 16.5593 27.553 16.0909 27 16.0909H12C11.447 16.0909 11 16.5593 11 17.1364C11 17.7135 11.447 18.1818 12 18.1818Z" fill="white"/>
<path d="M46 24.4545H12C11.447 24.4545 11 24.9229 11 25.5C11 26.0771 11.447 26.5455 12 26.5455H46C46.553 26.5455 47 26.0771 47 25.5C47 24.9229 46.553 24.4545 46 24.4545Z" fill="white"/>
<path d="M46 32.8182H12C11.447 32.8182 11 33.2865 11 33.8636C11 34.4407 11.447 34.9091 12 34.9091H46C46.553 34.9091 47 34.4407 47 33.8636C47 33.2865 46.553 32.8182 46 32.8182Z" fill="white"/>
<path d="M54 2.5H6C2.748 2.5 0 5.37291 0 8.77273V43.2727C0 46.6725 2.748 49.5455 6 49.5455H20.555L29.257 59.654C29.446 59.8745 29.717 60 30 60C30.283 60 30.554 59.8745 30.743 59.654L39.445 49.5455H54C57.252 49.5455 60 46.6725 60 43.2727V8.77273C60 5.37291 57.252 2.5 54 2.5ZM58 43.2727C58 45.5393 56.168 47.4545 54 47.4545H41.461L43.774 45.0615C44.167 44.6548 44.17 43.993 43.782 43.5822C43.394 43.1724 42.76 43.1682 42.368 43.5749L38.358 47.7232C38.326 47.7525 38.285 47.7671 38.257 47.8006L30 57.3916L21.743 47.8006C21.736 47.7933 21.727 47.7901 21.72 47.7828C21.713 47.7745 21.711 47.764 21.703 47.7567L17.661 43.5749C17.269 43.1682 16.635 43.1734 16.247 43.5822C15.858 43.993 15.862 44.6548 16.255 45.0615L18.568 47.4545H6C3.832 47.4545 2 45.5393 2 43.2727V8.77273C2 6.50618 3.832 4.59091 6 4.59091H54C56.168 4.59091 58 6.50618 58 8.77273V43.2727Z" fill="white"/>
</svg>
