<svg width="132" height="136" viewBox="0 0 132 136" fill="none" xmlns="http://www.w3.org/2000/svg">
<path d="M117.62 0C114.056 0 110.504 1.43555 107.789 4.22625L105.465 6.615L125.128 26.8275C125.117 26.839 127.451 24.4388 127.451 24.4388C132.892 18.8459 132.881 9.80766 127.451 4.22625C124.726 1.43555 121.184 0 117.62 0ZM101.086 11.8519C100.438 11.9438 99.8346 12.2768 99.3877 12.7706L6.61649 108.229C6.24782 108.573 5.96852 109.021 5.81211 109.515L0.0921131 131.565C-0.164841 132.576 0.125629 133.644 0.84063 134.379C1.55563 135.114 2.59461 135.412 3.57774 135.148L25.0277 129.268C25.5081 129.107 25.9438 128.82 26.279 128.441L119.14 33.075C120.279 31.938 120.29 30.0661 119.184 28.8947C118.078 27.7233 116.257 27.7118 115.118 28.8488L22.7934 123.756L11.1746 111.812L103.499 16.905C104.359 16.0552 104.616 14.7345 104.136 13.609C103.655 12.4835 102.549 11.783 101.354 11.8519C101.265 11.8519 101.175 11.8519 101.086 11.8519Z" fill="white"/>
</svg>
