<svg width="179" height="166" viewBox="0 0 179 166" fill="none" xmlns="http://www.w3.org/2000/svg">
<path d="M89.5001 58.1335C74.7148 58.1335 62.687 69.2884 62.687 82.9993C62.687 96.7103 74.7148 107.865 89.5001 107.865C104.285 107.865 116.313 96.7103 116.313 82.9993C116.313 69.2884 104.285 58.1335 89.5001 58.1335ZM89.5001 98.6556C80.1914 98.6556 72.6177 91.6325 72.6177 82.9993C72.6177 74.3661 80.1908 67.3431 89.5001 67.3431C98.8094 67.3431 106.382 74.3661 106.382 82.9993C106.382 91.6325 98.8082 98.6556 89.5001 98.6556Z" fill="white"/>
<path d="M177.361 101.411L162.177 88.6988V77.2999L177.36 64.5885C178.92 63.2826 179.425 61.2078 178.62 59.4079L170.506 41.2399C169.701 39.4406 167.769 38.3056 165.665 38.4035L145.236 39.3709L136.545 31.3113L137.588 12.3662C137.696 10.4203 136.471 8.62204 134.53 7.87698L114.938 0.351132C112.998 -0.395589 110.76 0.0740155 109.353 1.51878L95.644 15.6003H83.3537L69.6462 1.51878C68.238 0.0734624 66.0008 -0.39393 64.0605 0.351132L44.4697 7.87642C42.5283 8.62204 41.3038 10.4203 41.4112 12.3656L42.4549 31.3107L33.7636 39.3704L13.3342 38.4029C11.243 38.2989 9.29743 39.4395 8.49402 41.2394L0.378205 59.4074C-0.425802 61.2078 0.07879 63.282 1.63789 64.588L16.8216 77.2994V88.6982L1.63909 101.411C0.079983 102.717 -0.425205 104.791 0.379398 106.591L8.49402 124.759C9.29802 126.56 11.2395 127.702 13.3342 127.596L33.7636 126.628L42.4549 134.688L41.4112 153.633C41.3038 155.579 42.5289 157.377 44.4697 158.122L64.0605 165.648C66.002 166.396 68.2386 165.926 69.6462 164.48L83.3549 150.399H95.6452L109.354 164.48C110.316 165.468 111.664 165.999 113.041 165.999C113.68 165.999 114.325 165.884 114.94 165.649L134.53 158.123C136.472 157.377 137.696 155.579 137.589 153.634L136.546 134.688L145.237 126.629L165.666 127.596C167.757 127.695 169.703 126.56 170.506 124.76L178.621 106.592C179.425 104.791 178.92 102.717 177.361 101.411ZM162.672 118.233L143.538 117.326C142.136 117.256 140.767 117.749 139.774 118.669L127.962 129.624C126.969 130.545 126.443 131.813 126.514 133.114L127.491 150.858L114.375 155.896L101.537 142.708C100.596 141.742 99.2561 141.189 97.8515 141.189H81.1475C79.7428 141.189 78.4032 141.741 77.462 142.708L64.6236 155.896L51.5078 150.858L52.4853 133.114C52.5569 131.813 52.0303 130.544 51.0366 129.624L39.2252 118.669C38.2321 117.748 36.8663 117.259 35.461 117.326L16.3277 118.233L10.8947 106.07L25.1151 94.1637C26.1577 93.2897 26.753 92.0485 26.753 90.7459V75.2539C26.753 73.9513 26.1577 72.709 25.1151 71.8361L10.8947 59.9301L16.3277 47.7668L35.461 48.6734C36.8651 48.742 38.2321 48.2514 39.2252 47.3304L51.0366 36.3768C52.0303 35.4553 52.5569 34.1876 52.4853 32.8849L51.5078 15.1412L64.6236 10.1028L77.462 23.2904C78.4032 24.2567 79.7428 24.8093 81.1475 24.8093H97.8515C99.2561 24.8093 100.596 24.2573 101.537 23.2904L114.375 10.1028L127.491 15.1412L126.514 32.8849C126.443 34.1865 126.968 35.4542 127.962 36.3768L139.774 47.3304C140.768 48.2514 142.136 48.7486 143.538 48.6734L162.672 47.7668L168.105 59.9301L153.884 71.8361C152.841 72.7101 152.246 73.9513 152.246 75.2539V90.7459C152.246 92.0485 152.841 93.2908 153.884 94.1637L168.105 106.07L162.672 118.233Z" fill="white"/>
<path d="M89.5001 39.4694C63.618 39.4694 42.5611 58.9975 42.5611 82.9993C42.5611 107.002 63.618 126.529 89.5001 126.529C115.382 126.529 136.439 107.001 136.439 82.9993C136.438 58.997 115.382 39.4694 89.5001 39.4694ZM89.5001 117.32C69.0933 117.32 52.4919 101.924 52.4919 82.9993C52.4919 64.0747 69.0933 48.6789 89.5001 48.6789C109.907 48.6789 126.508 64.0747 126.508 82.9993C126.508 101.924 109.906 117.32 89.5001 117.32Z" fill="white"/>
</svg>
